<svg xmlns="http://www.w3.org/2000/svg" xmlns:xlink="http://www.w3.org/1999/xlink" width="166" zoomAndPan="magnify" viewBox="0 0 124.5 41.25" height="55" preserveAspectRatio="xMidYMid meet" version="1.2"><defs><clipPath id="8f40c68f4e"><path d="M 0.867188 6.875 L 31.671875 6.875 L 31.671875 33.796875 L 0.867188 33.796875 Z M 0.867188 6.875 "/></clipPath></defs><g id="036e7e4028"><g clip-rule="nonzero" clip-path="url(#8f40c68f4e)"><path style=" stroke:none;fill-rule:nonzero;fill:#ffffff;fill-opacity:1;" d="M 31.632812 20.171875 C 31.632812 12.839844 25.667969 6.875 18.339844 6.875 L 1.691406 6.875 C 1.246094 6.875 0.882812 7.238281 0.882812 7.683594 L 0.882812 32.65625 C 0.882812 33.101562 1.246094 33.460938 1.691406 33.460938 L 18.339844 33.460938 C 18.339844 33.460938 18.34375 33.460938 18.34375 33.460938 C 25.671875 33.460938 31.632812 27.5 31.632812 20.171875 Z M 18.339844 31.847656 C 18.339844 31.847656 18.335938 31.847656 18.335938 31.847656 L 2.5 31.847656 L 2.5 8.492188 L 18.339844 8.492188 C 24.777344 8.492188 30.015625 13.730469 30.015625 20.171875 C 30.015625 26.609375 24.777344 31.847656 18.339844 31.847656 Z M 18.339844 31.847656 "/></g><path style=" stroke:none;fill-rule:nonzero;fill:#ffffff;fill-opacity:1;" d="M 18.339844 11.039062 L 5.855469 11.039062 C 5.40625 11.039062 5.046875 11.398438 5.046875 11.847656 L 5.046875 24.332031 C 5.046875 24.777344 5.40625 25.140625 5.855469 25.140625 C 6.300781 25.140625 6.660156 24.777344 6.660156 24.332031 L 6.660156 12.652344 L 18.339844 12.652344 C 22.484375 12.652344 25.855469 16.027344 25.855469 20.167969 C 25.855469 24.3125 22.484375 27.683594 18.339844 27.683594 L 5.855469 27.683594 C 5.40625 27.683594 5.046875 28.046875 5.046875 28.492188 C 5.046875 28.9375 5.40625 29.300781 5.855469 29.300781 L 18.335938 29.300781 C 18.335938 29.300781 18.339844 29.300781 18.339844 29.300781 C 23.375 29.300781 27.46875 25.203125 27.46875 20.167969 C 27.46875 15.132812 23.375 11.039062 18.339844 11.039062 Z M 18.339844 11.039062 "/><path style=" stroke:none;fill-rule:nonzero;fill:#ffffff;fill-opacity:1;" d="M 18.339844 23.523438 C 18.300781 23.523438 18.265625 23.53125 18.226562 23.535156 L 10.015625 23.535156 C 9.570312 23.535156 9.207031 23.898438 9.207031 24.34375 C 9.207031 24.789062 9.570312 25.152344 10.015625 25.152344 L 18.339844 25.152344 C 18.398438 25.152344 18.457031 25.144531 18.515625 25.128906 C 21.171875 25.035156 23.308594 22.851562 23.308594 20.171875 C 23.308594 17.429688 21.078125 15.199219 18.339844 15.199219 L 14.175781 15.199219 C 13.730469 15.199219 13.371094 15.5625 13.371094 16.007812 C 13.371094 16.453125 13.730469 16.816406 14.175781 16.816406 L 18.339844 16.816406 C 20.1875 16.816406 21.691406 18.320312 21.691406 20.171875 C 21.691406 22.019531 20.1875 23.523438 18.339844 23.523438 Z M 18.339844 23.523438 "/><g style="fill:#ffffff;fill-opacity:1;"><g transform="translate(34.31598, 18.737062)"><path style="stroke:none" d=""/></g></g><g style="fill:#ffffff;fill-opacity:1;"><g transform="translate(37.300978, 18.737062)"><path style="stroke:none" d="M 0.78125 0 L 0.78125 -7.984375 L 3.421875 -7.984375 C 3.972656 -7.984375 4.488281 -7.878906 4.96875 -7.671875 C 5.457031 -7.460938 5.882812 -7.175781 6.25 -6.8125 C 6.613281 -6.457031 6.898438 -6.035156 7.109375 -5.546875 C 7.316406 -5.066406 7.421875 -4.550781 7.421875 -4 C 7.421875 -3.445312 7.316406 -2.925781 7.109375 -2.4375 C 6.898438 -1.957031 6.613281 -1.535156 6.25 -1.171875 C 5.882812 -0.804688 5.457031 -0.519531 4.96875 -0.3125 C 4.488281 -0.101562 3.972656 0 3.421875 0 Z M 2.546875 -1.5625 L 3.40625 -1.5625 C 3.832031 -1.5625 4.210938 -1.664062 4.546875 -1.875 C 4.890625 -2.09375 5.160156 -2.382812 5.359375 -2.75 C 5.554688 -3.113281 5.65625 -3.53125 5.65625 -4 C 5.65625 -4.457031 5.554688 -4.867188 5.359375 -5.234375 C 5.160156 -5.609375 4.890625 -5.898438 4.546875 -6.109375 C 4.210938 -6.328125 3.832031 -6.4375 3.40625 -6.4375 L 2.546875 -6.4375 Z M 2.546875 -1.5625 "/></g></g><g style="fill:#ffffff;fill-opacity:1;"><g transform="translate(45.001129, 18.737062)"><path style="stroke:none" d="M 0.859375 0 L 0.859375 -7.984375 L 2.609375 -7.984375 L 2.609375 0 Z M 0.859375 0 "/></g></g><g style="fill:#ffffff;fill-opacity:1;"><g transform="translate(48.238337, 18.737062)"><path style="stroke:none" d="M 4.59375 -4.375 L 8.71875 -4.375 L 8.71875 -4 C 8.71875 -3.425781 8.609375 -2.894531 8.390625 -2.40625 C 8.179688 -1.914062 7.882812 -1.476562 7.5 -1.09375 C 7.125 -0.71875 6.691406 -0.421875 6.203125 -0.203125 C 5.710938 0.00390625 5.179688 0.109375 4.609375 0.109375 C 4.035156 0.109375 3.5 0.00390625 3 -0.203125 C 2.507812 -0.421875 2.078125 -0.71875 1.703125 -1.09375 C 1.328125 -1.476562 1.03125 -1.914062 0.8125 -2.40625 C 0.601562 -2.894531 0.5 -3.425781 0.5 -4 C 0.5 -4.5625 0.601562 -5.085938 0.8125 -5.578125 C 1.03125 -6.078125 1.328125 -6.515625 1.703125 -6.890625 C 2.078125 -7.265625 2.507812 -7.554688 3 -7.765625 C 3.5 -7.984375 4.035156 -8.09375 4.609375 -8.09375 C 5.398438 -8.09375 6.113281 -7.890625 6.75 -7.484375 C 7.394531 -7.085938 7.894531 -6.5625 8.25 -5.90625 L 6.734375 -5.109375 C 6.535156 -5.492188 6.25 -5.800781 5.875 -6.03125 C 5.5 -6.257812 5.078125 -6.375 4.609375 -6.375 C 4.160156 -6.375 3.753906 -6.269531 3.390625 -6.0625 C 3.023438 -5.851562 2.738281 -5.566406 2.53125 -5.203125 C 2.320312 -4.847656 2.21875 -4.445312 2.21875 -4 C 2.21875 -3.539062 2.320312 -3.128906 2.53125 -2.765625 C 2.738281 -2.410156 3.023438 -2.128906 3.390625 -1.921875 C 3.753906 -1.710938 4.160156 -1.609375 4.609375 -1.609375 C 5.109375 -1.609375 5.550781 -1.738281 5.9375 -2 C 6.320312 -2.257812 6.609375 -2.597656 6.796875 -3.015625 L 4.59375 -3.015625 Z M 4.59375 -4.375 "/></g></g><g style="fill:#ffffff;fill-opacity:1;"><g transform="translate(57.244067, 18.737062)"><path style="stroke:none" d="M 0.859375 0 L 0.859375 -7.984375 L 2.609375 -7.984375 L 2.609375 0 Z M 0.859375 0 "/></g></g><g style="fill:#ffffff;fill-opacity:1;"><g transform="translate(60.481276, 18.737062)"><path style="stroke:none" d=""/></g></g><g style="fill:#ffffff;fill-opacity:1;"><g transform="translate(63.46536, 18.737062)"><path style="stroke:none" d="M 5.671875 0 L 5.1875 -1.5 L 2.203125 -1.5 L 1.703125 0 L -0.171875 0 L 2.703125 -7.984375 L 4.671875 -7.984375 L 7.546875 0 Z M 2.65625 -2.96875 L 4.71875 -2.96875 L 3.6875 -6.140625 Z M 2.65625 -2.96875 "/></g></g><g style="fill:#ffffff;fill-opacity:1;"><g transform="translate(70.632622, 18.737062)"><path style="stroke:none" d="M 5.65625 -6.453125 L 2.609375 -6.453125 L 2.609375 -4.765625 L 5.21875 -4.765625 L 5.21875 -3.21875 L 2.609375 -3.21875 L 2.609375 -1.546875 L 5.65625 -1.546875 L 5.65625 0 L 0.859375 0 L 0.859375 -7.984375 L 5.65625 -7.984375 Z M 5.65625 -6.453125 "/></g></g><g style="fill:#ffffff;fill-opacity:1;"><g transform="translate(76.627529, 18.737062)"><path style="stroke:none" d="M 4.953125 -3.296875 L 7.1875 0 L 5.21875 0 L 3.25 -3.09375 L 2.546875 -3.09375 L 2.546875 0 L 0.78125 0 L 0.78125 -7.984375 L 4.1875 -7.984375 C 4.644531 -7.984375 5.050781 -7.875 5.40625 -7.65625 C 5.757812 -7.445312 6.039062 -7.15625 6.25 -6.78125 C 6.457031 -6.40625 6.5625 -5.992188 6.5625 -5.546875 C 6.5625 -5.003906 6.410156 -4.523438 6.109375 -4.109375 C 5.804688 -3.703125 5.421875 -3.429688 4.953125 -3.296875 Z M 3.921875 -4.546875 C 4.203125 -4.546875 4.429688 -4.632812 4.609375 -4.8125 C 4.796875 -4.988281 4.890625 -5.210938 4.890625 -5.484375 C 4.890625 -5.765625 4.796875 -5.992188 4.609375 -6.171875 C 4.429688 -6.347656 4.203125 -6.4375 3.921875 -6.4375 L 2.546875 -6.4375 L 2.546875 -4.546875 Z M 3.921875 -4.546875 "/></g></g><g style="fill:#ffffff;fill-opacity:1;"><g transform="translate(83.541666, 18.737062)"><path style="stroke:none" d="M 4.59375 0.109375 C 4.03125 0.109375 3.5 0.00390625 3 -0.203125 C 2.507812 -0.421875 2.070312 -0.71875 1.6875 -1.09375 C 1.3125 -1.476562 1.019531 -1.914062 0.8125 -2.40625 C 0.601562 -2.894531 0.5 -3.425781 0.5 -4 C 0.5 -4.5625 0.601562 -5.085938 0.8125 -5.578125 C 1.019531 -6.078125 1.3125 -6.515625 1.6875 -6.890625 C 2.070312 -7.265625 2.507812 -7.554688 3 -7.765625 C 3.5 -7.984375 4.03125 -8.09375 4.59375 -8.09375 C 5.164062 -8.09375 5.695312 -7.984375 6.1875 -7.765625 C 6.6875 -7.554688 7.125 -7.265625 7.5 -6.890625 C 7.875 -6.515625 8.164062 -6.078125 8.375 -5.578125 C 8.59375 -5.085938 8.703125 -4.5625 8.703125 -4 C 8.703125 -3.425781 8.59375 -2.894531 8.375 -2.40625 C 8.164062 -1.914062 7.875 -1.476562 7.5 -1.09375 C 7.125 -0.71875 6.6875 -0.421875 6.1875 -0.203125 C 5.695312 0.00390625 5.164062 0.109375 4.59375 0.109375 Z M 4.59375 -1.609375 C 5.050781 -1.609375 5.457031 -1.710938 5.8125 -1.921875 C 6.175781 -2.128906 6.460938 -2.410156 6.671875 -2.765625 C 6.878906 -3.128906 6.984375 -3.539062 6.984375 -4 C 6.984375 -4.445312 6.878906 -4.847656 6.671875 -5.203125 C 6.460938 -5.566406 6.175781 -5.851562 5.8125 -6.0625 C 5.457031 -6.269531 5.050781 -6.375 4.59375 -6.375 C 4.144531 -6.375 3.738281 -6.269531 3.375 -6.0625 C 3.019531 -5.851562 2.738281 -5.566406 2.53125 -5.203125 C 2.320312 -4.847656 2.21875 -4.445312 2.21875 -4 C 2.21875 -3.539062 2.320312 -3.128906 2.53125 -2.765625 C 2.738281 -2.410156 3.019531 -2.128906 3.375 -1.921875 C 3.738281 -1.710938 4.144531 -1.609375 4.59375 -1.609375 Z M 4.59375 -1.609375 "/></g></g><g style="fill:#ffffff;fill-opacity:1;"><g transform="translate(92.534072, 18.737062)"><path style="stroke:none" d="M 5.71875 -7.984375 L 5.71875 -6.4375 L 3.703125 -6.4375 L 3.703125 0 L 1.953125 0 L 1.953125 -6.4375 L -0.0625 -6.4375 L -0.0625 -7.984375 Z M 5.71875 -7.984375 "/></g></g><g style="fill:#ffffff;fill-opacity:1;"><g transform="translate(97.969445, 18.737062)"><path style="stroke:none" d="M 5.65625 -6.453125 L 2.609375 -6.453125 L 2.609375 -4.765625 L 5.21875 -4.765625 L 5.21875 -3.21875 L 2.609375 -3.21875 L 2.609375 -1.546875 L 5.65625 -1.546875 L 5.65625 0 L 0.859375 0 L 0.859375 -7.984375 L 5.65625 -7.984375 Z M 5.65625 -6.453125 "/></g></g><g style="fill:#ffffff;fill-opacity:1;"><g transform="translate(103.964351, 18.737062)"><path style="stroke:none" d="M 4.59375 0.109375 C 4.03125 0.109375 3.5 0.00390625 3 -0.203125 C 2.507812 -0.421875 2.070312 -0.71875 1.6875 -1.09375 C 1.3125 -1.476562 1.019531 -1.914062 0.8125 -2.40625 C 0.601562 -2.894531 0.5 -3.425781 0.5 -4 C 0.5 -4.5625 0.601562 -5.085938 0.8125 -5.578125 C 1.019531 -6.078125 1.3125 -6.515625 1.6875 -6.890625 C 2.070312 -7.265625 2.507812 -7.554688 3 -7.765625 C 3.5 -7.984375 4.03125 -8.09375 4.59375 -8.09375 C 5.382812 -8.09375 6.101562 -7.890625 6.75 -7.484375 C 7.394531 -7.085938 7.890625 -6.5625 8.234375 -5.90625 L 6.71875 -5.109375 C 6.519531 -5.492188 6.234375 -5.800781 5.859375 -6.03125 C 5.484375 -6.257812 5.0625 -6.375 4.59375 -6.375 C 4.144531 -6.375 3.738281 -6.269531 3.375 -6.0625 C 3.019531 -5.851562 2.738281 -5.566406 2.53125 -5.203125 C 2.320312 -4.847656 2.21875 -4.445312 2.21875 -4 C 2.21875 -3.539062 2.320312 -3.128906 2.53125 -2.765625 C 2.738281 -2.410156 3.019531 -2.128906 3.375 -1.921875 C 3.738281 -1.710938 4.144531 -1.609375 4.59375 -1.609375 C 5.0625 -1.609375 5.484375 -1.722656 5.859375 -1.953125 C 6.234375 -2.179688 6.519531 -2.488281 6.71875 -2.875 L 8.234375 -2.09375 C 7.890625 -1.445312 7.394531 -0.914062 6.75 -0.5 C 6.101562 -0.09375 5.382812 0.109375 4.59375 0.109375 Z M 4.59375 0.109375 "/></g></g><g style="fill:#ffffff;fill-opacity:1;"><g transform="translate(112.330615, 18.737062)"><path style="stroke:none" d="M 5.796875 -7.984375 L 7.546875 -7.984375 L 7.546875 0 L 5.796875 0 L 5.796875 -3.21875 L 2.546875 -3.21875 L 2.546875 0 L 0.78125 0 L 0.78125 -7.984375 L 2.546875 -7.984375 L 2.546875 -4.78125 L 5.796875 -4.78125 Z M 5.796875 -7.984375 "/></g></g><g style="fill:#ffffff;fill-opacity:1;"><g transform="translate(41.589864, 28.136906)"><path style="stroke:none" d="M 1.5 0 L 0.578125 0 L 0.578125 -4.53125 L 1.5 -4.53125 Z M 1.5 0 "/></g></g><g style="fill:#ffffff;fill-opacity:1;"><g transform="translate(44.30163, 28.136906)"><path style="stroke:none" d="M 2.734375 -4.515625 C 3.296875 -4.441406 3.742188 -4.222656 4.078125 -3.859375 C 4.421875 -3.503906 4.59375 -2.992188 4.59375 -2.328125 C 4.59375 -1.660156 4.414062 -1.125 4.0625 -0.71875 C 3.71875 -0.320312 3.269531 -0.09375 2.71875 -0.03125 C 2.5625 -0.0078125 2.367188 0 2.140625 0 L 0.578125 0 L 0.578125 -4.53125 L 2.15625 -4.53125 C 2.382812 -4.53125 2.578125 -4.523438 2.734375 -4.515625 Z M 2.515625 -0.734375 C 2.859375 -0.773438 3.128906 -0.929688 3.328125 -1.203125 C 3.535156 -1.484375 3.640625 -1.851562 3.640625 -2.3125 C 3.640625 -2.75 3.539062 -3.09375 3.34375 -3.34375 C 3.144531 -3.601562 2.875 -3.753906 2.53125 -3.796875 C 2.394531 -3.816406 2.234375 -3.828125 2.046875 -3.828125 L 1.5 -3.828125 L 1.5 -0.71875 L 2.03125 -0.71875 C 2.257812 -0.71875 2.421875 -0.722656 2.515625 -0.734375 Z M 2.515625 -0.734375 "/></g></g><g style="fill:#ffffff;fill-opacity:1;"><g transform="translate(49.902272, 28.136906)"><path style="stroke:none" d="M 3.859375 -0.71875 L 3.859375 0 L 0.578125 0 L 0.578125 -4.53125 L 3.796875 -4.53125 L 3.796875 -3.828125 L 1.5 -3.828125 L 1.5 -2.625 L 3.625 -2.625 L 3.625 -1.921875 L 1.5 -1.921875 L 1.5 -0.71875 Z M 3.859375 -0.71875 "/></g></g><g style="fill:#ffffff;fill-opacity:1;"><g transform="translate(54.746143, 28.136906)"><path style="stroke:none" d="M 3.046875 -1.375 L 1.515625 -1.375 L 1.0625 0 L 0.09375 0 L 1.734375 -4.53125 L 2.875 -4.53125 L 4.484375 0 L 3.5 0 Z M 2.296875 -3.765625 L 1.75 -2.078125 L 2.8125 -2.078125 Z M 2.296875 -3.765625 "/></g></g><g style="fill:#ffffff;fill-opacity:1;"><g transform="translate(59.984849, 28.136906)"><path style="stroke:none" d="M 0.953125 -3.03125 L 0.328125 -3.03125 L 0.234375 -4.828125 L 1.046875 -4.828125 Z M 0.953125 -3.03125 "/></g></g><g style="fill:#ffffff;fill-opacity:1;"><g transform="translate(62.091203, 28.136906)"><path style="stroke:none" d="M 2.09375 -4.625 C 2.613281 -4.625 3.007812 -4.492188 3.28125 -4.234375 C 3.550781 -3.984375 3.710938 -3.640625 3.765625 -3.203125 L 2.84375 -3.203125 C 2.8125 -3.441406 2.726562 -3.625 2.59375 -3.75 C 2.46875 -3.882812 2.289062 -3.953125 2.0625 -3.953125 C 1.875 -3.953125 1.71875 -3.90625 1.59375 -3.8125 C 1.476562 -3.71875 1.421875 -3.585938 1.421875 -3.421875 C 1.421875 -3.222656 1.488281 -3.066406 1.625 -2.953125 C 1.769531 -2.847656 2.023438 -2.753906 2.390625 -2.671875 C 2.878906 -2.554688 3.238281 -2.378906 3.46875 -2.140625 C 3.707031 -1.910156 3.828125 -1.613281 3.828125 -1.25 C 3.828125 -0.832031 3.664062 -0.503906 3.34375 -0.265625 C 3.019531 -0.0234375 2.625 0.09375 2.15625 0.09375 C 1.601562 0.09375 1.160156 -0.0234375 0.828125 -0.265625 C 0.503906 -0.515625 0.320312 -0.875 0.28125 -1.34375 L 1.203125 -1.34375 C 1.253906 -1.101562 1.363281 -0.914062 1.53125 -0.78125 C 1.707031 -0.644531 1.910156 -0.578125 2.140625 -0.578125 C 2.347656 -0.578125 2.523438 -0.628906 2.671875 -0.734375 C 2.816406 -0.847656 2.890625 -0.988281 2.890625 -1.15625 C 2.890625 -1.351562 2.816406 -1.507812 2.671875 -1.625 C 2.535156 -1.738281 2.304688 -1.835938 1.984375 -1.921875 C 1.472656 -2.046875 1.09375 -2.207031 0.84375 -2.40625 C 0.59375 -2.613281 0.46875 -2.910156 0.46875 -3.296875 C 0.46875 -3.703125 0.625 -4.023438 0.9375 -4.265625 C 1.257812 -4.503906 1.644531 -4.625 2.09375 -4.625 Z M 2.09375 -4.625 "/></g></g><g style="fill:#ffffff;fill-opacity:1;"><g transform="translate(66.882431, 28.136906)"><path style="stroke:none" d=""/></g></g><g style="fill:#ffffff;fill-opacity:1;"><g transform="translate(68.949305, 28.136906)"><path style="stroke:none" d="M 4.140625 -3.828125 L 2.59375 -3.828125 L 2.59375 0 L 1.6875 0 L 1.6875 -3.828125 L 0.15625 -3.828125 L 0.15625 -4.53125 L 4.140625 -4.53125 Z M 4.140625 -3.828125 "/></g></g><g style="fill:#ffffff;fill-opacity:1;"><g transform="translate(73.83924, 28.136906)"><path style="stroke:none" d="M 2.578125 -4.625 C 3.273438 -4.625 3.820312 -4.410156 4.21875 -3.984375 C 4.625 -3.554688 4.828125 -2.984375 4.828125 -2.265625 C 4.828125 -1.554688 4.625 -0.984375 4.21875 -0.546875 C 3.820312 -0.117188 3.273438 0.09375 2.578125 0.09375 C 1.890625 0.09375 1.34375 -0.117188 0.9375 -0.546875 C 0.53125 -0.984375 0.328125 -1.554688 0.328125 -2.265625 C 0.328125 -2.984375 0.523438 -3.554688 0.921875 -3.984375 C 1.328125 -4.410156 1.878906 -4.625 2.578125 -4.625 Z M 1.625 -1.015625 C 1.851562 -0.722656 2.171875 -0.578125 2.578125 -0.578125 C 2.984375 -0.578125 3.300781 -0.726562 3.53125 -1.03125 C 3.757812 -1.332031 3.875 -1.742188 3.875 -2.265625 C 3.875 -2.796875 3.757812 -3.207031 3.53125 -3.5 C 3.300781 -3.800781 2.984375 -3.953125 2.578125 -3.953125 C 2.171875 -3.953125 1.851562 -3.800781 1.625 -3.5 C 1.394531 -3.207031 1.28125 -2.796875 1.28125 -2.265625 C 1.28125 -1.734375 1.394531 -1.316406 1.625 -1.015625 Z M 1.625 -1.015625 "/></g></g><g style="fill:#ffffff;fill-opacity:1;"><g transform="translate(79.663618, 28.136906)"><path style="stroke:none" d=""/></g></g><g style="fill:#ffffff;fill-opacity:1;"><g transform="translate(81.730492, 28.136906)"><path style="stroke:none" d="M 3.875 -1.140625 C 3.925781 -0.597656 4.035156 -0.21875 4.203125 0 L 3.203125 0 C 3.097656 -0.300781 3.023438 -0.640625 2.984375 -1.015625 C 2.921875 -1.523438 2.71875 -1.796875 2.375 -1.828125 C 2.289062 -1.828125 2.171875 -1.828125 2.015625 -1.828125 L 1.5 -1.828125 L 1.5 0 L 0.578125 0 L 0.578125 -4.53125 L 2.25 -4.53125 C 2.5 -4.53125 2.71875 -4.519531 2.90625 -4.5 C 3.257812 -4.457031 3.546875 -4.335938 3.765625 -4.140625 C 3.984375 -3.953125 4.09375 -3.671875 4.09375 -3.296875 C 4.09375 -3.015625 4.015625 -2.78125 3.859375 -2.59375 C 3.703125 -2.40625 3.484375 -2.273438 3.203125 -2.203125 C 3.585938 -2.046875 3.8125 -1.691406 3.875 -1.140625 Z M 1.5 -2.5 L 2.125 -2.5 C 2.300781 -2.5 2.421875 -2.503906 2.484375 -2.515625 C 2.921875 -2.554688 3.140625 -2.773438 3.140625 -3.171875 C 3.140625 -3.367188 3.085938 -3.515625 2.984375 -3.609375 C 2.878906 -3.710938 2.734375 -3.78125 2.546875 -3.8125 C 2.429688 -3.820312 2.300781 -3.828125 2.15625 -3.828125 L 1.5 -3.828125 Z M 1.5 -2.5 "/></g></g><g style="fill:#ffffff;fill-opacity:1;"><g transform="translate(86.824427, 28.136906)"><path style="stroke:none" d="M 3.859375 -0.71875 L 3.859375 0 L 0.578125 0 L 0.578125 -4.53125 L 3.796875 -4.53125 L 3.796875 -3.828125 L 1.5 -3.828125 L 1.5 -2.625 L 3.625 -2.625 L 3.625 -1.921875 L 1.5 -1.921875 L 1.5 -0.71875 Z M 3.859375 -0.71875 "/></g></g><g style="fill:#ffffff;fill-opacity:1;"><g transform="translate(91.668298, 28.136906)"><path style="stroke:none" d="M 3.046875 -1.375 L 1.515625 -1.375 L 1.0625 0 L 0.09375 0 L 1.734375 -4.53125 L 2.875 -4.53125 L 4.484375 0 L 3.5 0 Z M 2.296875 -3.765625 L 1.75 -2.078125 L 2.8125 -2.078125 Z M 2.296875 -3.765625 "/></g></g><g style="fill:#ffffff;fill-opacity:1;"><g transform="translate(96.907004, 28.136906)"><path style="stroke:none" d="M 3.859375 -0.75 L 3.859375 0 L 0.578125 0 L 0.578125 -4.53125 L 1.5 -4.53125 L 1.5 -0.75 Z M 3.859375 -0.75 "/></g></g><g style="fill:#ffffff;fill-opacity:1;"><g transform="translate(101.671911, 28.136906)"><path style="stroke:none" d="M 1.5 0 L 0.578125 0 L 0.578125 -4.53125 L 1.5 -4.53125 Z M 1.5 0 "/></g></g><g style="fill:#ffffff;fill-opacity:1;"><g transform="translate(104.383678, 28.136906)"><path style="stroke:none" d="M 4.140625 -3.828125 L 2.59375 -3.828125 L 2.59375 0 L 1.6875 0 L 1.6875 -3.828125 L 0.15625 -3.828125 L 0.15625 -4.53125 L 4.140625 -4.53125 Z M 4.140625 -3.828125 "/></g></g><g style="fill:#ffffff;fill-opacity:1;"><g transform="translate(109.273613, 28.136906)"><path style="stroke:none" d="M 2.609375 -1.75 L 2.609375 0 L 1.703125 0 L 1.703125 -1.75 L 0.109375 -4.53125 L 1.125 -4.53125 L 2.1875 -2.5625 L 3.21875 -4.53125 L 4.21875 -4.53125 Z M 2.609375 -1.75 "/></g></g></g></svg>